<?xml version="1.0" encoding="utf-8"?>
<!-- Generator: Adobe Illustrator 26.0.0, SVG Export Plug-In . SVG Version: 6.00 Build 0)  -->
<svg version="1.1" id="Layer_1" xmlns="http://www.w3.org/2000/svg" xmlns:xlink="http://www.w3.org/1999/xlink" x="0px" y="0px"
	 viewBox="0 0 480 343" style="enable-background:new 0 0 480 343;" xml:space="preserve">
<style type="text/css">
	.st0{fill:#666666;fill-opacity:0;}
	.st1{fill-rule:evenodd;clip-rule:evenodd;}
	.st2{fill:#FFFFFF;}
</style>
<rect class="st0" width="480" height="343"/>
<g>
	<path class="st1" d="M193,113.4l-15-9.1v-30l15,7.4V113.4z M179.8,103.3l11.5,7V82.7L179.8,77L179.8,103.3z M221.6,113.6l-14.9-9.1
		v-17h1.7v16l11.5,7V95.8h1.7V113.6z M192.3,113.5V81.7l12.5-6.2l0.8,1.6L194,82.8v27.5l11.5-7V87.4h1.7v16.9L192.3,113.5z
		 M218,92.9l-0.6-0.5c-0.4-0.3-9.7-8.6-9.7-14.1c0-5.7,4.6-10.3,10.3-10.3c5.7,0,10.3,4.6,10.3,10.3l0,0c0,5.6-9.3,13.8-9.7,14.1
		L218,92.9z M218,69.7c-4.7,0-8.5,3.9-8.5,8.6c0,3.7,5.7,9.7,8.5,12.3c2.8-2.6,8.5-8.6,8.5-12.3C226.5,73.6,222.7,69.7,218,69.7z
		 M218,83.4c-2.5,0-4.5-2-4.5-4.4s2-4.5,4.4-4.5s4.5,2,4.5,4.4c0,0,0,0,0,0l0,0C222.5,81.4,220.5,83.4,218,83.4
		C218,83.4,218,83.4,218,83.4z M218,76.2c-1.5,0-2.7,1.2-2.7,2.8c0,1.5,1.2,2.7,2.8,2.7c1.5,0,2.7-1.2,2.7-2.7l0,0
		C220.8,77.5,219.6,76.3,218,76.2C218,76.2,218,76.2,218,76.2z"/>
	<path d="M221.8,114l-15-9.2l-13.6,8.3v0.6l-0.5-0.3l-0.7,0.4v-0.8l-14.3-8.7V73.9l15,7.4l12.2-6.1l1,2L194.2,83v26.9l11-6.7v-16
		l3.4,0v16.1l11,6.7V95.5h2.2V114z M207.3,104.6l14,8.6V96h-1.2v14.9l-12-7.3V87.7h-0.7v16.8L207.3,104.6z M192.6,112.8l0.2,0.1l0,0
		l0-31.1l-0.2,0.1V112.8z M193.2,81.6v31.1l13.2-8.1V87.7h-0.7v15.8l-12,7.3V82.7l11.5-5.7l-0.5-1.1L193.2,81.6z M178.2,104.1
		l13.8,8.4V81.6l0.1-0.1l-13.9-6.9V104.1z M206.9,87.7v16.5l0,0L206.9,87.7L206.9,87.7z M191.5,110.7l-12-7.3l0-26.8l12,6V110.7z
		 M180,103.1l11,6.7V82.9l-11-5.5L180,103.1z M218,93.3l-0.7-0.6c-0.4-0.3-9.8-8.6-9.8-14.3c0-5.8,4.7-10.5,10.5-10.5
		s10.5,4.7,10.5,10.5c0,5.7-9.4,14-9.8,14.3L218,93.3z M218,68.3c-5.5,0-10,4.5-10,10c0,5.5,9.5,13.9,9.6,13.9l0.4,0.4l0.4-0.4
		c0.1-0.1,9.6-8.5,9.6-13.9C228,72.8,223.5,68.3,218,68.3z M218,90.9l-0.2-0.2c-0.9-0.8-8.6-8-8.6-12.5c0-4.9,3.9-8.8,8.8-8.8h0
		c4.9,0,8.8,4,8.8,8.8c0,4.4-7.7,11.7-8.6,12.5L218,90.9z M218,70c-4.6,0-8.3,3.8-8.3,8.3c0,3.4,5.1,9,8.3,12
		c3.2-2.9,8.3-8.6,8.3-12C226.3,73.7,222.6,70,218,70z M218,83.7c-1.2,0-2.4-0.5-3.3-1.4c-0.9-0.9-1.4-2.1-1.4-3.3
		c0-1.3,0.5-2.5,1.4-3.4c0.9-0.9,2.1-1.4,3.3-1.4c0,0,0,0,0,0c2.6,0,4.7,2.1,4.7,4.7c0,1.3-0.5,2.5-1.3,3.4
		C220.5,83.2,219.3,83.7,218,83.7L218,83.7C218,83.7,218,83.7,218,83.7z M218,83.2L218,83.2l0,0.2L218,83.2c2.4,0,4.2-1.9,4.2-4.3
		c0-2.3-1.9-4.2-4.2-4.2c0,0,0,0,0,0c-1.1,0-2.2,0.5-3,1.3c-0.8,0.8-1.2,1.9-1.2,3C213.8,81.3,215.6,83.2,218,83.2
		C218,83.2,218,83.2,218,83.2L218,83.2z M218,82c-0.8,0-1.5-0.3-2.1-0.9c-0.6-0.6-0.9-1.3-0.9-2.1c0-1.6,1.3-3,3-3h0.1
		c0.8,0,1.5,0.3,2.1,0.9c0.6,0.6,0.9,1.3,0.8,2.1C221,80.6,219.7,82,218,82C218,82,218,82,218,82z M218,76.5c-1.4,0-2.5,1.1-2.5,2.5
		c0,0.7,0.3,1.3,0.7,1.8c0.5,0.5,1.1,0.7,1.8,0.7c0,0,0,0,0,0c1.4,0,2.5-1.1,2.5-2.5c0-0.7-0.2-1.3-0.7-1.8S218.7,76.5,218,76.5
		L218,76.5z"/>
</g>
<g id="CREDIT_CARD_ICON">
	<path id="Rounded_Rectangle_1" d="M183,222h32c5.5,0,10,4.5,10,10v13c0,5.5-4.5,10-10,10h-32c-5.5,0-10-4.5-10-10v-13
		C173,226.5,177.5,222,183,222z"/>
	<g>
		<path class="st2" d="M208,244.5l-2.4-3.7c-1.4-2.2-1.7-2.6-3-2.9c2.4-0.5,3.7-2,3.7-3.9c0-2.4-2.1-3.9-5.3-3.9h-2.4v0
			c0.5,0.1,1,0.4,1.5,0.7c0.1,0,0.3-0.1,0.6-0.1c2.3,0,3.5,1.4,3.5,3.2c0,2.1-1.3,3.6-2.9,3.6l-0.7,0v0c1.6,0.7,2,1.6,2.6,2.5
			l2.5,4.6c0.5,0.8,1,1.2,1.8,1.2h2.3v-0.1C208.8,245.5,208.5,245.2,208,244.5z"/>
		<g>
			<path class="st2" d="M190.9,245.9v-0.1l0.5-0.2c0.4-0.2,0.5-0.4,0.5-0.8v-13.6c0-0.4-0.1-0.6-0.5-0.8l-0.5-0.2v-0.1h5.1
				c3.1,0,5.1,1.5,5.1,3.8c0,1.7-1.4,2.9-3.4,3.3c2.9,0.4,4.8,1.9,4.8,4.3c0,2.3-1.8,4.4-6.5,4.4H190.9z M194.1,237.1h1.7
				c2.1,0,3.2-1.4,3.2-3.3c0-1.8-1.2-3-3.3-3c-0.7,0-1.3,0.2-1.6,0.3V237.1z M200.3,241.5c0-1.8-1.1-3.7-4.2-3.7h-2v7.2
				c0.6,0.2,1.3,0.3,2.2,0.3C199.4,245.3,200.3,243.1,200.3,241.5z"/>
		</g>
	</g>
</g>
<g id="GIFT_CARD_ICON">
	<g>
		<path d="M215,183h-32c-6.1,0-11-4.9-11-11v-13c0-6.1,4.9-11,11-11h32c6.1,0,11,4.9,11,11v13C226,178.1,221.1,183,215,183z
			 M183,150c-5,0-9,4-9,9v13c0,5,4,9,9,9h32c5,0,9-4,9-9v-13c0-5-4-9-9-9H183z"/>
	</g>
	<g>
		<path d="M208,171.5l-2.4-3.7c-1.4-2.2-1.7-2.6-3-2.9c2.4-0.5,3.7-2,3.7-3.9c0-2.4-2.1-3.9-5.3-3.9h-2.4v0c0.5,0.1,1,0.4,1.5,0.7
			c0.1,0,0.3-0.1,0.6-0.1c2.3,0,3.5,1.4,3.5,3.2c0,2.1-1.3,3.6-2.9,3.6h-0.7v0c1.6,0.7,2,1.6,2.6,2.5l2.5,4.6c0.5,0.8,1,1.2,1.8,1.2
			h2.3v-0.1C208.8,172.5,208.5,172.2,208,171.5z"/>
		<g>
			<path d="M190.9,172.9v-0.1l0.5-0.2c0.4-0.2,0.5-0.4,0.5-0.8v-13.6c0-0.4-0.1-0.6-0.5-0.8l-0.5-0.2V157h5.1c3.1,0,5.1,1.5,5.1,3.8
				c0,1.7-1.4,2.9-3.4,3.3c2.9,0.4,4.8,1.9,4.8,4.3c0,2.3-1.8,4.4-6.5,4.4H190.9z M194.1,164h1.7c2.1,0,3.2-1.4,3.2-3.3
				c0-1.8-1.2-3-3.3-3c-0.7,0-1.3,0.2-1.6,0.3V164z M200.3,168.4c0-1.8-1.1-3.7-4.2-3.7h-2v7.2c0.6,0.2,1.3,0.3,2.2,0.3
				C199.4,172.2,200.3,170.1,200.3,168.4z"/>
		</g>
	</g>
</g>
<path id="find_a_store_GIFT_CARD_CREDIT_CARD_" class="st1" d="M251,93.5h1.9v-3.3h2.6v-1.8h-2.6v-1.5h3.4V85H251V93.5z M259.7,93.5
	h1.9V85h-1.9V93.5z M273.2,93.5V85h-1.9v5.2l-4.2-5.2h-1.6v8.5h1.9v-5.3l4.2,5.3H273.2z M277.1,93.5h2.9c2.3,0.2,4.4-1.6,4.5-4
	c0.2-2.3-1.6-4.4-4-4.5c-0.1,0-0.2,0-0.3,0h-3.1L277.1,93.5z M279,91.8v-5h1c1.4,0.1,2.4,1.3,2.3,2.7c-0.1,1.2-1.1,2.2-2.3,2.3H279z
	 M291.3,93.5h2l0.8-1.8h3.5l0.8,1.8h2l-3.7-8.5h-1.7L291.3,93.5z M294.7,90l1.1-2.6l1.1,2.6H294.7z M310.2,93.6c1.8,0,3-1.1,3-2.6
	c0-1.2-0.8-2.2-2-2.5l-0.6-0.2c-0.9-0.3-1.3-0.5-1.3-1c0.1-0.4,0.5-0.7,1-0.7c0.6,0,1.1,0.3,1.5,0.7l1.2-1.3
	c-0.7-0.8-1.7-1.2-2.8-1.2c-1.7,0-3,1-3,2.6c0,1.2,0.8,2,2.1,2.5l0.6,0.2c0.9,0.3,1.2,0.6,1.2,1c-0.1,0.5-0.5,0.8-1,0.7c0,0,0,0,0,0
	l0,0c-0.7,0-1.4-0.4-1.8-1l-1.5,1.2C307.9,93.1,309,93.6,310.2,93.6L310.2,93.6z M318.1,93.5h1.9v-6.7h2.2V85H316v1.8h2.2
	L318.1,93.5L318.1,93.5z M329.1,93.6c2.4,0,4.4-2,4.4-4.4c0-2.4-2-4.4-4.4-4.4c-2.4,0-4.4,2-4.4,4.4
	C324.7,91.6,326.7,93.6,329.1,93.6C329.1,93.6,329.1,93.6,329.1,93.6z M329.1,91.8c-1.4,0-2.6-1.1-2.6-2.5c0-1.4,1.1-2.6,2.5-2.6
	c1.4,0,2.6,1.1,2.6,2.5c0,0,0,0.1,0,0.1C331.6,90.6,330.5,91.7,329.1,91.8L329.1,91.8z M337,93.5h1.9V90h0.3l2.8,3.5h2.3l-3-3.8
	c1-0.3,1.7-1.2,1.6-2.2c0-1.4-1.1-2.5-2.5-2.6H337V93.5z M338.9,88.4v-1.6h1.2c0.5-0.1,0.9,0.2,1,0.7c0,0,0,0,0,0c0,0,0,0.1,0,0.1
	c0,0.5-0.4,0.8-0.9,0.8H338.9L338.9,88.4z M347.1,93.5h5.4v-1.8H349v-1.5h2.8v-1.8H349v-1.5h3.5V85h-5.4L347.1,93.5z M255.1,168
	c1.3,0.1,2.6-0.4,3.5-1.3v-4h-3.5v1.8h1.7v1.3c-0.5,0.3-1.1,0.4-1.7,0.4c-1.4,0.1-2.6-1-2.7-2.4s1-2.6,2.4-2.7h0.2
	c0.8,0,1.6,0.3,2.1,0.9l1.4-1.3c-0.9-1-2.2-1.5-3.5-1.4c-2.4-0.1-4.4,1.8-4.5,4.2v0.2c0,2.4,2,4.4,4.4,4.4c0,0,0,0,0,0L255.1,168z
	 M262.2,167.9h1.9v-8.5h-1.9V167.9z M268.1,167.9h1.9v-3.3h2.6v-1.8H270v-1.5h3.3v-1.8h-5.2L268.1,167.9L268.1,167.9z M278.3,167.9
	h1.9v-6.7h2.2v-1.8h-6.3v1.8h2.2L278.3,167.9L278.3,167.9z M294,168c1.7,0,3.2-0.9,4-2.3l-1.7-0.9c-0.6,1.3-2.2,1.8-3.4,1.1
	s-1.8-2.2-1.1-3.4c0.6-1.3,2.2-1.8,3.4-1.1c0,0,0,0,0,0c0.5,0.3,0.9,0.6,1.1,1.1l1.7-0.9c-1.1-2.2-3.8-3.1-6-1.9
	c-2.2,1.1-3.1,3.8-1.9,6C290.8,167.1,292.3,168,294,168L294,168z M300.1,167.9h2l0.8-1.8h3.5l0.8,1.8h2l-3.7-8.5h-1.7L300.1,167.9z
	 M303.6,164.4l1.1-2.6l1.1,2.6H303.6z M312.1,167.9h1.9v-3.5h0.3l2.8,3.5h2.3l-3-3.8c1-0.2,1.7-1.2,1.7-2.2c0-1.4-1.1-2.5-2.4-2.6
	c0,0,0,0,0,0h-3.5L312.1,167.9L312.1,167.9z M314.1,162.7v-1.6h1.2c0.5-0.1,0.9,0.2,1,0.7c0,0,0,0,0,0c0,0,0,0.1,0,0.1
	c0,0.5-0.4,0.8-0.9,0.8L314.1,162.7L314.1,162.7z M322.2,167.9h2.9c2.4,0.1,4.3-1.8,4.4-4.2c0.1-2.4-1.8-4.3-4.2-4.4h-3.1V167.9z
	 M324.1,166.1v-5h1c1.4,0.1,2.4,1.3,2.3,2.7c-0.1,1.2-1.1,2.2-2.3,2.3H324.1z M254.9,242.4c1.7,0,3.2-0.9,4-2.3l-1.7-0.9
	c-0.6,1.3-2.2,1.7-3.4,1.1c-1.3-0.6-1.7-2.2-1.1-3.4c0.6-1.2,2.2-1.7,3.4-1.1c0.5,0.3,0.9,0.6,1.1,1.1l1.7-0.9
	c-1.1-2.2-3.8-3.1-6-1.9s-3.1,3.8-1.9,6C251.7,241.5,253.2,242.4,254.9,242.4L254.9,242.4z M262.1,242.3h1.9v-3.5h0.3l2.8,3.5h2.3
	l-3-3.8c1-0.2,1.7-1.2,1.7-2.2c0-1.4-1.1-2.5-2.4-2.6c0,0,0,0,0,0h-3.5V242.3z M264,237.1v-1.6h1.2c0.5-0.1,0.9,0.2,1,0.7
	c0,0,0,0,0,0c0,0,0,0.1,0,0.1c0,0.5-0.4,0.8-0.9,0.8L264,237.1L264,237.1z M272.2,242.3h5.4v-1.8h-3.5V239h2.8v-1.8h-2.8v-1.6h3.5
	v-1.8h-5.4L272.2,242.3L272.2,242.3z M281.2,242.3h2.9c2.4,0,4.3-1.8,4.4-4.2c0-2.4-1.8-4.3-4.2-4.3h-3.1V242.3z M283.1,240.5v-5h1
	c1.4,0.1,2.4,1.3,2.3,2.7c-0.1,1.2-1.1,2.2-2.3,2.3H283.1z M291.9,242.3h1.9v-8.5h-1.9V242.3z M299.2,242.3h1.9v-6.7h2.2v-1.8h-6.3
	v1.8h2.2L299.2,242.3L299.2,242.3z M315,242.4c1.7,0,3.2-0.9,4-2.3l-1.7-0.9c-0.6,1.3-2.2,1.8-3.5,1.1c-1.3-0.6-1.8-2.2-1.1-3.5
	s2.2-1.8,3.5-1.1c0.5,0.2,0.9,0.6,1.1,1.1l1.7-0.8c-1.1-2.2-3.8-3.1-6-1.9c-2.2,1.1-3.1,3.8-1.9,6
	C311.8,241.5,313.3,242.5,315,242.4L315,242.4z M321.1,242.3h2l0.8-1.8h3.5l0.8,1.8h2l-3.7-8.5h-1.7L321.1,242.3z M324.5,238.8
	l1.1-2.6l1.1,2.6H324.5z M333.1,242.3h1.9v-3.5h0.3l2.8,3.5h2.3l-3-3.8c1-0.2,1.7-1.2,1.7-2.2c0-1.4-1.1-2.5-2.4-2.6c0,0,0,0,0,0
	h-3.6L333.1,242.3L333.1,242.3z M335,237.1v-1.6h1.2c0.5-0.1,0.9,0.2,1,0.7c0,0,0,0,0,0c0,0,0,0.1,0,0.1c0,0.5-0.4,0.8-0.9,0.8
	L335,237.1L335,237.1z M343.2,242.3h2.9c2.4,0.1,4.3-1.8,4.4-4.2c0.1-2.4-1.8-4.3-4.2-4.4l0,0h-3.1V242.3z M345.1,240.5v-5h1
	c1.4,0.1,2.4,1.3,2.3,2.7c-0.1,1.2-1.1,2.2-2.3,2.3H345.1z"/>
</svg>
